<svg xmlns="http://www.w3.org/2000/svg" viewBox="0 0 320 200" fill="none">
  <rect width="320" height="200" fill="#FFFFFF"/>
  <path d="M130 40 C120 55 115 75 118 95 C121 115 128 130 135 145 C138 150 145 150 148 145 C155 128 162 110 160 90 C158 70 150 50 140 38 C136 34 134 36 130 40Z" fill="#E53935"/>
  <ellipse cx="133" cy="55" rx="8" ry="12" fill="#E53935"/>
  <ellipse cx="145" cy="52" rx="7" ry="11" fill="#E53935"/>
  <ellipse cx="156" cy="55" rx="7" ry="11" fill="#E53935"/>
  <ellipse cx="167" cy="60" rx="6" ry="10" fill="#E53935"/>
  <ellipse cx="175" cy="68" rx="5" ry="9" fill="#E53935"/>
  <path d="M190 40 C200 55 205 75 202 95 C199 115 192 130 185 145 C182 150 175 150 172 145 C165 128 158 110 160 90 C162 70 170 50 180 38 C184 34 186 36 190 40Z" fill="#1E88E5"/>
  <ellipse cx="187" cy="55" rx="8" ry="12" fill="#1E88E5"/>
  <ellipse cx="175" cy="52" rx="7" ry="11" fill="#1E88E5"/>
  <ellipse cx="164" cy="55" rx="7" ry="11" fill="#1E88E5"/>
  <ellipse cx="153" cy="60" rx="6" ry="10" fill="#1E88E5"/>
  <ellipse cx="145" cy="68" rx="5" ry="9" fill="#1E88E5"/>
  <rect x="20" y="170" width="280" height="6" rx="3" fill="#42B9B2" opacity="0.3"/>
  <circle cx="160" cy="173" r="8" fill="#42B9B2"/>
</svg>
